<svg width="16" height="14" viewBox="0 0 16 14" fill="none" xmlns="http://www.w3.org/2000/svg">
<path d="M0.457963 6.33571C0.529412 6.18627 0.626295 6.04607 0.748476 5.92168C0.752165 5.91793 0.755871 5.91419 0.759597 5.91047L5.37376 1.29631C5.97457 0.695501 6.94867 0.695501 7.54947 1.29631C8.15028 1.89711 8.15028 2.87121 7.54947 3.47202L5.56041 5.46109H14.1539C15.0036 5.46109 15.6924 6.14988 15.6924 6.99955C15.6924 7.84922 15.0036 8.53801 14.1539 8.53801H5.36006L7.23706 10.5714C7.81337 11.1958 7.77444 12.1691 7.1501 12.7454C6.52576 13.3217 5.55243 13.2828 4.97612 12.6584L0.718996 8.04656C0.693014 8.0186 0.668062 7.98967 0.644197 7.95984C0.438797 7.70307 0.313961 7.37905 0.307993 7.02608C0.307832 7.01661 0.307756 7.00714 0.30777 6.99768C0.308053 6.76064 0.36194 6.53616 0.457963 6.33571Z" fill="white"/>
</svg>
