<svg width="16" height="14" viewBox="0 0 16 14" fill="none" xmlns="http://www.w3.org/2000/svg">
<path d="M15.542 6.33571C15.4706 6.18627 15.3737 6.04607 15.2515 5.92168C15.2478 5.91793 15.2441 5.91419 15.2404 5.91047L10.6262 1.29631C10.0254 0.695501 9.05133 0.695501 8.45053 1.29631C7.84972 1.89711 7.84972 2.87121 8.45053 3.47202L10.4396 5.46109H1.84608C0.996409 5.46109 0.307617 6.14988 0.307617 6.99955C0.307617 7.84922 0.996409 8.53801 1.84608 8.53801H10.6399L8.76294 10.5714C8.18663 11.1958 8.22556 12.1691 8.8499 12.7454C9.47424 13.3217 10.4476 13.2828 11.0239 12.6584L15.281 8.04656C15.307 8.0186 15.3319 7.98967 15.3558 7.95984C15.5612 7.70307 15.686 7.37905 15.692 7.02608C15.6922 7.01661 15.6922 7.00714 15.6922 6.99768C15.6919 6.76064 15.6381 6.53616 15.542 6.33571Z" fill="white"/>
</svg>
