<svg width="90" height="90" viewBox="0 0 90 90" fill="none" xmlns="http://www.w3.org/2000/svg">
<circle cx="45" cy="45" r="44.5" stroke="#007C00"/>
<path d="M63.75 40.833C63.75 55.4163 45 67.9163 45 67.9163C45 67.9163 26.25 55.4163 26.25 40.833C26.25 35.8602 28.2254 31.0911 31.7417 27.5748C35.2581 24.0584 40.0272 22.083 45 22.083C49.9728 22.083 54.7419 24.0584 58.2583 27.5748C61.7746 31.0911 63.75 35.8602 63.75 40.833Z" fill="#007C00" stroke="#007C00" stroke-width="2" stroke-linecap="round" stroke-linejoin="round"/>
<path d="M45 47.083C48.4518 47.083 51.25 44.2848 51.25 40.833C51.25 37.3812 48.4518 34.583 45 34.583C41.5482 34.583 38.75 37.3812 38.75 40.833C38.75 44.2848 41.5482 47.083 45 47.083Z" fill="white"/>
</svg>
