<svg width="90" height="90" viewBox="0 0 90 90" fill="none" xmlns="http://www.w3.org/2000/svg">
<circle cx="45" cy="45" r="44.5" stroke="#007C00"/>
<path d="M65.833 55.2496V61.4996C65.8353 62.0798 65.7165 62.6541 65.4841 63.1857C65.2516 63.7173 64.9107 64.1945 64.4832 64.5868C64.0556 64.979 63.5509 65.2776 63.0012 65.4635C62.4516 65.6494 61.8692 65.7184 61.2913 65.6662C54.8806 64.9696 48.7226 62.779 43.3122 59.2704C38.2785 56.0718 34.0108 51.8041 30.8122 46.7704C27.2913 41.3354 25.1002 35.1475 24.4163 28.7079C24.3643 28.1318 24.4327 27.5511 24.6174 27.0029C24.802 26.4547 25.0988 25.951 25.4888 25.5238C25.8787 25.0965 26.3534 24.7552 26.8826 24.5215C27.4117 24.2877 27.9837 24.1668 28.5622 24.1662H34.8122C35.8232 24.1563 36.8034 24.5143 37.57 25.1736C38.3366 25.8329 38.8373 26.7484 38.9788 27.7496C39.2426 29.7497 39.7318 31.7136 40.4372 33.6037C40.7175 34.3494 40.7781 35.1598 40.612 35.9389C40.4458 36.718 40.0598 37.4331 39.4997 37.9996L36.8538 40.6454C39.8196 45.8611 44.1381 50.1796 49.3538 53.1454L51.9997 50.4996C52.5661 49.9394 53.2812 49.5534 54.0603 49.3872C54.8394 49.2211 55.6498 49.2818 56.3955 49.562C58.2856 50.2674 60.2495 50.7566 62.2497 51.0204C63.2617 51.1632 64.1859 51.6729 64.8466 52.4527C65.5073 53.2324 65.8583 54.2278 65.833 55.2496Z" fill="#007C00" stroke="#007C00" stroke-width="2" stroke-linecap="round" stroke-linejoin="round"/>
</svg>
